<svg xmlns="http://www.w3.org/2000/svg" width="24" height="24" viewBox="0 0 24 24">
    <path fill="#6D7391" fill-rule="evenodd" d="M23.766 0H1.087C.466 0 0 .45 0 1.05V23.1c0 .45.466.9 1.087.9h22.834c.622 0 1.088-.45 1.088-1.05V1.05C24.853.45 24.387 0 23.766 0zM7.301 20.4H3.728V9h3.728v11.4h-.155zM5.592 7.5c-1.243 0-2.175-1.05-2.175-2.1 0-1.2.932-2.1 2.175-2.1 1.243 0 2.175.9 2.175 2.1-.156 1.05-1.088 2.1-2.175 2.1zm15.533 12.9h-3.728v-5.55c0-1.35 0-3-1.864-3s-2.174 1.5-2.174 3v5.7H9.63V9h3.572v1.5c.466-.9 1.71-1.8 3.418-1.8 3.728 0 4.35 2.4 4.35 5.4v6.3h.154z"/>
</svg>
